# xmcd CD database file
#
# Track frame offsets:
#	150
#	23787
#	48190
#	66794
#	92088
#	117758
#	140624
#	168399
#	189540
#	215430
#	231371
#
# Disc length: 3267 seconds
#
# Revision: 1
# Processed by: cddbd v1.5.2PL0 Copyright (c) Steve Scherf et al.
# Submitted via: CDex 1.51
#
DISCID=960cc10b
DTITLE=Don Friedman - From A to Z - Piano Works 6
DYEAR=2006
DGENRE=Jazz - Solo Piano
TTITLE0=Meant To B (Attila Zoller)
TTITLE1=When It's Time (Attila Zoller)
TTITLE2=A Rhousand Dreams (Attila Zoller)
TTITLE3=Alicia's Lullaby (Attila Zoller)
TTITLE4=I Concentrate On You (Cole Porter)
TTITLE5=Free Flow (Don Friedman)
TTITLE6=Memory Of Scotty (Don Friedman)
TTITLE7=From A to Z (Don Friedman)
TTITLE8=Asm Me Now (Thelonious Monk)
TTITLE9=Straight Ahead (Don Friedman)
TTITLE10=Blues For Attila (Don Friedman)
EXTD=YEAR: 2006
EXTT0=
EXTT1=
EXTT2=
EXTT3=
EXTT4=
EXTT5=
EXTT6=
EXTT7=
EXTT8=
EXTT9=
EXTT10=
PLAYORDER=
